<?xml version="1.0" standalone="no"?>
<!DOCTYPE svg PUBLIC "-//W3C//DTD SVG 20010904//EN"
 "http://www.w3.org/TR/2001/REC-SVG-20010904/DTD/svg10.dtd">
<svg version="1.0" xmlns="http://www.w3.org/2000/svg"
 width="585.000000pt" height="204.000000pt" viewBox="0 0 585.000000 204.000000"
 preserveAspectRatio="xMidYMid meet">

<g transform="translate(0.000000,204.000000) scale(0.100000,-0.100000)"
fill="#000000" stroke="none">
<path d="M656 1988 c-3 -18 -8 -73 -11 -123 -3 -49 -8 -114 -12 -142 l-5 -53
51 0 c51 0 51 0 51 33 0 17 3 49 6 70 l7 37 53 0 54 0 0 -70 0 -70 44 0 44 0
6 48 c3 26 8 88 11 137 3 50 8 107 11 128 l6 37 -50 0 -50 0 -7 -65 -7 -65
-56 0 -57 0 3 65 4 65 -46 0 c-43 0 -45 -1 -50 -32z"/>
<path d="M1797 2013 c-4 -3 -7 -17 -7 -30 0 -21 5 -23 45 -23 43 0 45 1 45 30
0 28 -2 30 -38 30 -21 0 -42 -3 -45 -7z"/>
<path d="M1916 1963 c-3 -32 -9 -111 -12 -175 l-7 -118 42 0 41 0 0 43 c0 24
3 47 7 50 4 4 18 -14 32 -40 25 -46 28 -48 74 -51 26 -2 47 0 47 4 0 3 -16 33
-36 65 l-35 58 35 53 c20 29 36 56 36 60 0 5 -19 8 -43 8 -40 0 -44 -3 -67
-45 -14 -25 -28 -45 -32 -45 -4 0 -5 43 -1 95 l6 95 -40 0 -40 0 -7 -57z"/>
<path d="M1039 1905 c-33 -18 -49 -61 -49 -132 0 -44 5 -58 25 -78 21 -22 33
-25 90 -25 61 0 69 3 97 30 16 17 28 36 26 43 -7 19 -70 21 -84 2 -18 -25 -68
-16 -72 13 -3 21 -1 22 77 22 l81 0 0 45 c0 68 -31 95 -107 95 -32 -1 -70 -7
-84 -15z m109 -62 c2 -9 -8 -13 -32 -13 -34 0 -44 8 -29 24 11 11 56 2 61 -11z"/>
<path d="M1276 1898 c-3 -13 -8 -69 -11 -125 l-7 -103 40 0 c36 0 40 3 46 31
3 17 6 52 6 78 0 51 7 68 30 71 42 6 43 4 38 -90 l-5 -90 38 0 c21 0 40 3 42
8 3 4 8 50 12 104 6 89 5 98 -14 117 -25 25 -77 28 -109 5 -20 -14 -22 -14
-22 0 0 12 -10 16 -40 16 -33 0 -40 -4 -44 -22z"/>
<path d="M1555 1823 c-3 -54 -7 -109 -8 -123 -2 -22 2 -25 39 -28 l41 -3 7 82
c7 80 19 115 37 103 5 -3 9 -14 9 -25 0 -16 7 -19 40 -19 40 0 40 0 40 39 0
23 -7 46 -16 55 -20 21 -63 20 -86 -1 -17 -15 -18 -15 -18 0 0 13 -9 17 -39
17 l-39 0 -7 -97z"/>
<path d="M1786 1873 c-3 -27 -8 -83 -11 -125 l-7 -78 41 0 c22 0 42 3 44 8 3
4 8 60 11 125 l7 117 -39 0 -40 0 -6 -47z"/>
<path d="M2212 1910 c-40 -17 -56 -94 -24 -123 9 -8 43 -18 75 -22 46 -6 57
-11 55 -24 -4 -22 -56 -27 -64 -7 -4 11 -20 16 -51 16 -44 0 -45 -1 -39 -27
11 -46 32 -55 118 -51 87 4 113 19 124 73 9 49 -20 76 -91 84 -65 7 -90 31
-31 31 19 0 38 -4 41 -10 3 -5 22 -10 41 -10 29 0 34 3 34 24 0 38 -35 56
-105 55 -33 0 -70 -4 -83 -9z"/>
<path d="M270 1856 c-105 -23 -191 -90 -241 -186 l-24 -45 -3 -676 c-2 -662
-2 -678 18 -732 29 -77 87 -140 168 -179 l67 -33 2670 0 2670 0 56 28 c67 32
142 109 172 175 22 47 22 50 22 722 l0 675 -33 67 c-39 80 -101 138 -181 170
l-56 23 -1532 3 -1533 2 0 -65 0 -65 1528 -2 1527 -3 40 -22 c50 -27 80 -58
100 -105 13 -32 15 -122 15 -680 l0 -643 -29 -50 c-21 -37 -42 -58 -79 -78
l-50 -27 -2636 0 c-2357 0 -2641 2 -2674 15 -47 20 -78 50 -105 100 -22 40
-22 47 -25 668 -2 445 1 640 9 670 15 55 89 131 144 146 22 6 91 11 153 11
l113 0 -3 63 -3 62 -105 2 c-58 1 -130 -4 -160 -11z"/>
<path d="M635 1510 c-12 -19 -295 -775 -295 -787 0 -18 205 -18 217 -1 4 7 17
38 28 68 l20 55 142 3 142 3 11 -43 c24 -101 12 -93 133 -96 59 -1 107 1 107
5 0 4 -41 185 -90 401 -50 216 -90 395 -90 397 0 10 -319 5 -325 -5z m185
-316 c16 -76 32 -149 35 -161 5 -23 4 -23 -90 -23 -52 0 -95 3 -95 6 0 12 113
324 117 321 2 -2 17 -67 33 -143z"/>
<path d="M1246 1478 c-7 -48 -56 -711 -56 -745 0 -22 3 -23 90 -23 85 0 90 1
94 23 6 27 56 708 56 755 l0 32 -89 0 -90 0 -5 -42z"/>
<path d="M1559 1518 c-5 -8 -65 -794 -62 -800 2 -5 44 -8 93 -8 l88 0 7 63 c7
70 55 712 55 733 0 11 -20 14 -90 14 -49 0 -91 -1 -91 -2z"/>
<path d="M4146 1512 c-2 -4 -6 -37 -7 -72 l-3 -65 91 -3 90 -3 7 38 c3 21 6
55 6 76 l0 37 -89 0 c-50 0 -92 -3 -95 -8z"/>
<path d="M1895 1265 c-57 -20 -91 -63 -105 -130 -23 -111 7 -165 105 -190 32
-8 94 -15 136 -15 89 0 115 -15 104 -59 -9 -35 -21 -41 -83 -41 -62 0 -92 13
-92 40 0 19 -7 20 -95 20 l-95 0 0 -36 c0 -50 24 -96 63 -119 26 -16 55 -21
159 -23 152 -5 224 12 274 62 51 51 69 150 39 222 -20 48 -65 65 -200 73 -61
4 -116 10 -123 15 -18 11 -15 63 4 70 9 3 40 6 70 6 46 0 56 -3 70 -25 16 -25
21 -26 98 -23 l81 3 3 41 c4 52 -29 95 -86 112 -56 17 -277 15 -327 -3z"/>
<path d="M2545 1267 c-59 -19 -88 -42 -112 -84 -29 -52 -44 -134 -44 -241 -1
-174 45 -222 226 -230 201 -9 287 36 310 161 l7 37 -90 0 c-82 0 -91 -2 -97
-20 -12 -37 -34 -50 -86 -50 -63 0 -89 23 -89 80 l0 40 183 2 182 3 0 95 c0
174 -43 213 -235 217 -74 2 -129 -2 -155 -10z m193 -130 c6 -6 13 -24 17 -40
l7 -27 -91 0 c-58 0 -91 4 -91 11 0 15 21 53 34 61 18 13 113 9 124 -5z"/>
<path d="M3045 1268 c-7 -21 -43 -542 -38 -550 6 -10 170 -10 177 0 2 4 9 73
15 152 16 204 20 229 42 251 44 44 97 10 86 -57 l-6 -34 84 0 84 0 7 36 c9 51
-2 141 -21 170 -20 31 -53 44 -111 44 -52 0 -94 -19 -123 -56 l-21 -27 0 42 0
41 -85 0 c-60 0 -87 -4 -90 -12z"/>
<path d="M3517 1273 c-3 -4 21 -132 52 -283 l56 -275 144 0 143 0 89 275 c49
151 89 278 89 283 0 4 -43 7 -95 7 -52 0 -95 -1 -95 -3 0 -7 -120 -420 -123
-424 -2 -2 -17 76 -32 174 -15 98 -30 194 -34 213 l-7 35 -91 3 c-50 1 -93 -1
-96 -5z"/>
<path d="M4129 1278 c-4 -15 -43 -560 -40 -564 4 -4 181 -6 181 -1 12 141 40
511 40 535 l0 32 -90 0 c-49 0 -90 -1 -91 -2z"/>
<path d="M4525 1266 c-101 -32 -141 -96 -157 -258 -14 -137 -1 -204 47 -247
49 -43 101 -54 235 -49 91 2 123 7 155 24 47 23 81 83 91 157 l7 47 -97 0 -96
0 0 -29 c0 -36 -18 -51 -69 -58 -28 -4 -48 -1 -66 11 -22 14 -25 23 -25 75 0
88 17 163 41 184 47 38 139 10 139 -43 0 -19 7 -20 91 -20 l91 0 -4 63 c-7
121 -64 158 -242 156 -56 0 -119 -6 -141 -13z"/>
<path d="M5120 1271 c-49 -16 -89 -41 -108 -69 -46 -63 -73 -246 -52 -346 24
-115 100 -153 291 -144 107 5 149 18 197 61 23 21 56 112 46 128 -3 5 -43 9
-90 9 -80 0 -85 -1 -94 -24 -12 -32 -39 -46 -87 -46 -59 0 -83 22 -83 76 l0
44 179 0 180 0 7 48 c9 60 -9 168 -34 201 -40 54 -77 66 -207 68 -66 1 -131
-1 -145 -6z m188 -133 c7 -7 12 -25 12 -40 l0 -28 -85 0 c-78 0 -85 2 -85 20
0 37 35 60 93 60 29 0 58 -5 65 -12z"/>
<path d="M1700 490 c-17 -17 -20 -33 -20 -115 0 -119 11 -135 95 -135 84 0 95
16 95 135 0 119 -11 135 -95 135 -42 0 -60 -5 -75 -20z m105 -115 l0 -70 -30
0 c-30 0 -30 1 -33 59 -4 76 1 88 35 84 28 -3 28 -4 28 -73z"/>
<path d="M1890 480 c0 -30 1 -30 55 -30 30 0 55 -4 55 -9 0 -8 -40 -120 -65
-183 -6 -15 -1 -18 27 -18 l35 0 36 98 c21 55 37 115 37 135 l0 37 -90 0 -90
0 0 -30z"/>
<path d="M2144 502 c-24 -16 -34 -55 -34 -136 0 -110 12 -126 98 -126 45 0 63
5 76 19 35 39 32 195 -5 232 -14 14 -33 19 -71 19 -29 0 -58 -4 -64 -8z m94
-130 l3 -73 -33 3 c-33 3 -33 3 -36 62 -4 76 1 88 35 84 27 -3 28 -5 31 -76z"/>
<path d="M2350 490 c-23 -23 -26 -68 -6 -95 11 -16 11 -21 0 -33 -20 -20 -18
-86 4 -105 28 -25 126 -23 152 3 23 23 27 82 6 99 -12 10 -12 16 1 41 12 24
12 37 3 64 -13 40 -25 46 -91 46 -36 0 -54 -5 -69 -20z m100 -60 c0 -27 -27
-37 -47 -17 -20 19 -9 37 23 37 17 0 24 -5 24 -20z m5 -105 c0 -15 -8 -21 -32
-23 -27 -3 -33 0 -33 16 0 26 10 33 40 30 17 -2 25 -9 25 -23z"/>
<path d="M2723 468 c-39 -41 -41 -44 -26 -66 l16 -23 29 27 28 28 0 -97 0 -97
35 0 35 0 0 135 0 135 -38 0 c-31 0 -45 -7 -79 -42z"/>
<path d="M2936 440 c-35 -54 -46 -79 -46 -110 l0 -40 60 0 c57 0 60 -1 60 -25
0 -22 4 -25 35 -25 28 0 35 4 35 20 0 11 6 29 12 40 10 16 10 24 0 40 -7 11
-12 52 -12 95 l0 75 -49 0 -48 0 -47 -70z m71 -87 c-3 -2 -17 -3 -31 -1 l-25
3 27 42 27 43 3 -41 c2 -23 1 -43 -1 -46z"/>
<path d="M3262 467 c-40 -41 -41 -44 -26 -66 l16 -23 29 28 29 28 0 -97 0 -97
35 0 35 0 0 135 0 135 -38 0 c-31 0 -45 -7 -80 -43z"/>
<path d="M3462 467 c-40 -41 -41 -44 -26 -66 l16 -23 29 28 29 28 0 -97 0 -97
35 0 35 0 0 135 0 135 -38 0 c-31 0 -45 -7 -80 -43z"/>
<path d="M3760 483 c-19 -25 -21 -38 -18 -121 4 -110 13 -122 93 -122 65 0 85
15 92 68 10 71 -41 114 -107 90 -19 -7 -21 -5 -18 20 2 21 9 28 31 30 18 2 29
-2 33 -12 4 -10 18 -16 35 -16 24 0 29 4 29 25 0 43 -33 65 -94 65 -48 0 -57
-4 -76 -27z m108 -160 c-2 -12 -13 -18 -33 -18 -20 0 -31 6 -33 18 -3 14 4 17
33 17 29 0 36 -3 33 -17z"/>
<path d="M3980 490 c-11 -11 -20 -31 -20 -45 0 -21 5 -25 29 -25 16 0 31 6 35
15 3 8 17 15 31 15 33 0 36 -37 3 -42 -17 -2 -24 -11 -26 -30 -3 -24 0 -28 22
-28 21 0 26 -5 26 -25 0 -21 -5 -25 -29 -25 -20 0 -30 6 -34 20 -3 14 -14 20
-31 20 -23 0 -26 -4 -26 -33 0 -48 25 -67 89 -67 29 0 61 5 71 10 26 14 36 74
18 102 -12 19 -13 26 -1 49 17 34 8 74 -20 94 -32 23 -113 19 -137 -5z"/>
<path d="M2590 340 c0 -29 2 -30 45 -30 43 0 45 1 45 30 0 29 -2 30 -45 30
-43 0 -45 -1 -45 -30z"/>
</g>
</svg>
